Coordinates
version=1
nRows=5
nColumns=63
inDegrees=yes

Units are S.I. units (second, meters, Newtons, ...)
If the header above contains a line with 'inDegrees', this indicates whether rotational values are in degrees (yes) or radians (no).

endheader
time	pelvis_tilt	pelvis_list	pelvis_rotation	pelvis_tx	pelvis_ty	pelvis_tz	hip_flexion_r	hip_adduction_r	hip_rotation_r	knee_angle_r	knee_angle_r_beta	ankle_angle_r	subtalar_angle_r	mtp_angle_r	hip_flexion_l	hip_adduction_l	hip_rotation_l	knee_angle_l	knee_angle_l_beta	ankle_angle_l	subtalar_angle_l	mtp_angle_l	L5_S1_Flex_Ext	L5_S1_Lat_Bending	L5_S1_axial_rotation	L4_L5_Flex_Ext	L4_L5_Lat_Bending	L4_L5_axial_rotation	L3_L4_Flex_Ext	L3_L4_Lat_Bending	L3_L4_axial_rotation	L2_L3_Flex_Ext	L2_L3_Lat_Bending	L2_L3_axial_rotation	L1_L2_Flex_Ext	L1_L2_Lat_Bending	L1_L2_axial_rotation	L1_T12_Flex_Ext	L1_T12_Lat_Bending	L1_T12_axial_rotation	Abs_r3	Abs_r2	Abs_r1	Abs_t1	Abs_t2	neck_flexion	neck_bending	neck_rotation	arm_flex_r	arm_add_r	arm_rot_r	elbow_flex_r	pro_sup_r	wrist_flex_r	wrist_dev_r	arm_flex_l	arm_add_l	arm_rot_l	elbow_flex_l	pro_sup_l	wrist_flex_l	wrist_dev_l
      4.16949153	     -5.22519069	     -3.37484475	    452.42352248	      0.23814135	      0.99574824	      0.50079816	      2.66102537	     -4.72417003	    -10.06778145	      6.56652792	      0.11460753	     23.44660687	     14.81389251	      0.00000000	      1.45884898	      4.99312810	     -9.33811300	      1.40713195	      0.02455909	     21.81309469	      8.89241072	      0.00000000	      0.00836904	      4.67493542	     64.98943767	      0.01554215	      6.21766411	     69.05127753	      0.01374950	     11.36663799	     69.05127753	      0.00956498	     11.36663799	     56.86575796	      0.00777149	      9.53312832	     52.80391811	      0.00478207	      7.24147497	     48.74207825	      0.05977923	     52.88380450	    361.45175550	      0.00000000	      0.00000000	     22.18910485	      4.38918916	     -1.10199607	      0.19946153	    -29.12088169	     72.71240230	     12.34941791	      9.30103508	     -7.68298388	     -4.28902175	     -4.30173600	    -36.89833994	     88.22674602	      8.64490594	     28.24288406	     -1.97132249	      0.48896139
      4.18644068	     -5.11951483	     -3.40450887	    452.96218225	      0.23738964	      0.99639532	      0.50138913	      2.58801768	     -4.58328512	     -9.91694798	      6.22967753	      0.10872838	     23.17121967	     13.93249123	      0.00000000	      1.60356578	      4.87914004	     -9.60190949	      1.47607960	      0.02576245	     21.78317361	      9.77992299	      0.00000000	      0.00974257	      4.59580900	     64.96959546	      0.01809292	      6.11242596	     69.03019518	      0.01600606	     11.17424999	     69.03019518	      0.01113478	     11.17424999	     56.84839603	      0.00904695	      9.37177370	     52.78779631	      0.00556690	      7.11890813	     48.72719660	      0.06959018	     51.98871052	    361.34139909	      0.00000000	      0.00000000	     22.17265634	      4.10018776	     -1.56313615	      0.31094480	    -28.74372091	     72.49675343	     12.25029624	      9.69423774	     -5.59110506	     -4.13951226	     -2.88492634	    -35.91413141	     89.68659875	      8.42456235	     30.12880860	     -1.36262793	      2.02877764
      4.20338983	     -4.91579852	     -3.34405638	    453.27712842	      0.23648039	      0.99714404	      0.50235376	      2.49982932	     -4.38160971	     -9.66334319	      6.01637673	      0.10500558	     22.84784247	     13.13315450	      0.00000000	      1.66752854	      4.68327605	    -10.18443885	      1.53562135	      0.02680165	     21.53649856	     10.70762018	      0.00000000	      0.01083633	      4.30969739	     65.02953519	      0.02012414	      5.73189753	     69.09388114	      0.01780300	     10.47859823	     69.09388114	      0.01238484	     10.47859823	     56.90084329	      0.01006261	      8.78833491	     52.83649734	      0.00619188	      6.67572125	     48.77215139	      0.07740280	     48.75215879	    361.67476588	      0.00000000	      0.00000000	     22.26767388	      3.90905234	     -1.10861303	      0.78961723	    -28.62008539	     72.71154843	     12.39238747	     10.70008337	     -3.98831658	     -4.08166713	     -1.33538878	    -34.51289346	     89.92706187	      8.07329337	     32.27826253	     -1.00418729	      3.45158149
      4.22033898	     -4.58582100	     -3.21000358	    453.54065314	      0.23533040	      0.99796262	      0.50387521	      2.40335749	     -4.08122597	     -9.55014934	      5.91407319	      0.10322005	     22.32415146	     12.47915604	      0.00000000	      1.70800011	      4.37394455	    -10.51651085	      1.61380136	      0.02816615	     21.13608375	     11.16275208	      0.00000000	      0.00588692	      3.84471416	     65.15306699	      0.01093260	      5.11346984	     69.22513367	      0.00967162	      9.34803802	     69.22513367	      0.00672816	      9.34803802	     57.00893361	      0.00546659	      7.84014112	     52.93686693	      0.00336379	      5.95546224	     48.86480024	      0.04204969	     43.49217556	    362.36181265	      0.00000000	      0.00000000	     22.38382302	      3.54076317	     -0.42281994	      1.41189610	    -28.60878038	     72.09612955	     12.70348495	     12.51990510	     -2.81028971	     -3.97349097	     -0.48140437	    -32.27006040	     70.76386644	      7.38827888	     52.63939230	     -0.81090724	      4.94993812
      4.23728814	     -4.47709248	     -3.16737895	    453.67910146	      0.23465519	      0.99886683	      0.50558973	      2.43935459	     -4.02442359	     -9.68452008	      5.91816028	      0.10329138	     21.87986842	     12.23295601	      0.00000000	      1.85489908	      4.28180582	    -10.79522273	      1.68138314	      0.02934567	     20.45288501	     11.34829917	      0.00000000	      0.00737515	      3.56171854	     65.22174392	      0.01369639	      4.73708565	     69.29810292	      0.01211664	      8.65996245	     69.29810292	      0.00842906	      8.65996245	     57.06902593	      0.00684857	      7.26305644	     52.99266694	      0.00421416	      5.51710201	     48.91630794	      0.05267997	     40.29087244	    362.74377317	      0.00000000	      0.00000000	     22.33781959	      3.26621811	      0.69680292	      2.28476111	    -28.32188759	     72.67685711	     12.80033131	     13.35518553	     -1.43569913	     -3.69813527	      1.62592592	    -30.82274947	     74.02764239	      6.97033393	     56.21994861	     -0.50137685	      4.30454947
